Coordinates
version=1
nRows=49
nColumns=12
inDegrees=yes

Units are S.I. units (second, meters, Newtons, ...)
Angles are in degrees

endheader
time	SC_y	SC_z	SC_x	AC_y	AC_z	AC_x	GH_y	GH_z	GH_yy	EL_x	PS_y
       0.0              -41.91          39.09          44.08          37.51         -9.798           15.5          63.72          88.62         -30.88           94.8          29.28
   0.03457              -41.91          39.08          44.08          37.51         -9.797           15.5           63.7          88.61         -30.89           94.8          29.29
   0.06914              -41.91          39.08          44.07          37.52         -9.795           15.5          63.68           88.6         -30.91           94.8           29.3
    0.1037              -41.91          39.08          44.07          37.52         -9.793           15.5          63.65          88.59         -30.92           94.8          29.31
    0.1383              -41.91          39.07          44.06          37.52         -9.792          15.49          63.63          88.58         -30.93           94.8          29.33
    0.1729              -41.91          39.07          44.06          37.53          -9.79          15.49           63.6          88.57         -30.94           94.8          29.34
    0.2074              -41.92          39.07          44.05          37.53         -9.788          15.49          63.58          88.56         -30.96           94.8          29.35
     0.242              -41.92          39.06          44.04          37.53         -9.785          15.48          63.55          88.54         -30.97           94.8          29.37
    0.2766              -41.92          39.06          44.04          37.53         -9.783          15.48          63.52          88.53         -30.99           94.8          29.39
    0.3111              -41.92          39.05          44.03          37.54         -9.781          15.47          63.49          88.51          -31.0           94.8           29.4
    0.3457              -41.92          39.05          44.02          37.54         -9.778          15.47          63.45          88.49         -31.02           94.8          29.42
    0.3803              -41.92          39.04          44.01          37.55         -9.775          15.46          63.41          88.48         -31.04           94.8          29.44
    0.4148              -41.93          39.04           44.0          37.55         -9.772          15.46          63.37          88.46         -31.06           94.8          29.46
    0.4494              -41.93          39.03          43.99          37.56         -9.769          15.45          63.33          88.44         -31.09           94.8          29.49
     0.484              -41.93          39.02          43.98          37.56         -9.765          15.45          63.28          88.41         -31.11           94.8          29.51
    0.5186              -41.93          39.02          43.97          37.57         -9.761          15.44          63.23          88.39         -31.14           94.8          29.54
    0.5531              -41.94          39.01          43.95          37.57         -9.757          15.43          63.17          88.36         -31.17           94.8          29.57
    0.5877              -41.94           39.0          43.94          37.58         -9.752          15.42          63.11          88.33          -31.2           94.8           29.6
    0.6223              -41.94          38.99          43.92          37.59         -9.747          15.41          63.04           88.3         -31.23           94.8          29.64
    0.6568              -41.95          38.98          43.91           37.6         -9.741           15.4          62.97          88.26         -31.27           94.8          29.68
    0.6914              -41.95          38.97          43.89          37.61         -9.735          15.39          62.89          88.22         -31.31          94.79          29.72
     0.726              -41.96          38.96          43.87          37.62         -9.728          15.38           62.8          88.18         -31.36          94.79          29.77
    0.7605              -41.96          38.94          43.84          37.63         -9.721          15.37           62.7          88.13         -31.41          94.79          29.82
    0.7951              -41.97          38.93          43.82          37.64         -9.713          15.35           62.6          88.08         -31.47          94.79          29.88
    0.8297              -41.97          38.91          43.79          37.65         -9.704          15.33          62.48          88.02         -31.53          94.79          29.94
    0.8643              -41.98          38.89          43.76          37.67         -9.693          15.32          62.34          87.96          -31.6          94.79          30.01
    0.8988              -41.99          38.87          43.72          37.69         -9.682           15.3          62.19          87.89         -31.68          94.79          30.09
    0.9334               -42.0          38.85          43.69          37.71         -9.669          15.27          62.02           87.8         -31.77          94.79          30.18
     0.968              -42.01          38.82          43.64          37.73         -9.654          15.25          61.83          87.71         -31.87          94.79          30.29
     1.003              -42.02          38.79          43.59          37.75         -9.638          15.22          61.61          87.61         -31.98          94.79           30.4
     1.037              -42.03          38.75          43.53          37.78         -9.619          15.18          61.37          87.49         -32.11          94.79          30.53
     1.072              -42.04          38.71          43.47          37.81         -9.597          15.14          61.08          87.35         -32.26          94.78          30.69
     1.106              -42.06          38.67          43.39          37.85         -9.572           15.1          60.75          87.19         -32.43          94.78          30.86
     1.141              -42.08          38.61           43.3          37.89         -9.543          15.05          60.37          87.01         -32.63          94.78          31.06
     1.175               -42.1          38.55           43.2          37.94         -9.509          14.98          59.92          86.79         -32.86          94.78           31.3
      1.21              -42.13          38.48          43.07           38.0         -9.469          14.91           59.4          86.54         -33.13          94.78          31.58
     1.245              -42.16          38.39          42.93          38.07         -9.421          14.83          58.77          86.24         -33.46          94.77          31.92
     1.279               -42.2          38.28          42.75          38.16         -9.364          14.72          58.02          85.88         -33.85          94.77          32.32
     1.314              -42.25          38.15          42.54          38.26         -9.295           14.6          57.11          85.44         -34.32          94.76           32.8
     1.348               -42.3          37.99          42.28          38.39          -9.21          14.45           56.0           84.9          -34.9          94.76          33.39
     1.383              -42.37           37.8          41.96          38.54         -9.106          14.26          54.64          84.24         -35.61          94.75          34.12
     1.417              -42.46          37.56          41.56          38.74         -8.976          14.02          52.93          83.42          -36.5          94.74          35.03
     1.452              -42.57          37.26          41.06          38.98         -8.812          13.73          50.78          82.38         -37.62          94.73          36.18
     1.487              -42.71          36.87          40.42          39.29         -8.603          13.35          48.05          81.06         -39.04          94.71          37.63
     1.521              -42.89          36.37          39.61          39.69         -8.336          12.87          44.55          79.38         -40.86           94.7           39.5
     1.556              -43.12          35.74          38.56           40.2         -7.994          12.26          40.06          77.21          -43.2          94.67          41.89
      1.59              -43.41          34.93          37.22          40.85         -7.557          11.47          34.33          74.45         -46.18          94.64          44.94
     1.625              -43.78          33.91          35.54          41.67         -7.007          10.48          27.12          70.97         -49.94           94.6          48.79
     1.659              -44.23          32.66          33.49          42.67         -6.337          9.271          18.34          66.73         -54.51          94.55          53.47
